<svg id="Layer_1" data-name="Layer 1" xmlns="http://www.w3.org/2000/svg" xmlns:xlink="http://www.w3.org/1999/xlink" viewBox="0 0 679.47 577.97"><defs><style>.cls-1{fill:url(#linear-gradient);}.cls-2{fill:url(#linear-gradient-2);}.cls-3{fill:#fff;}.cls-4{fill:url(#linear-gradient-3);}</style><linearGradient id="linear-gradient" x1="3009.4" y1="260.7" x2="3132.55" y2="47.4" gradientTransform="matrix(-1, 0, 0, 1, 3197.96, -8.9)" gradientUnits="userSpaceOnUse"><stop offset="0" stop-color="#fff" stop-opacity="0"/><stop offset="0.4" stop-color="#fff" stop-opacity="0.42"/><stop offset="0.81" stop-color="#fff" stop-opacity="0.83"/><stop offset="1" stop-color="#fff"/></linearGradient><linearGradient id="linear-gradient-2" x1="578.29" y1="260.7" x2="701.44" y2="47.4" gradientTransform="translate(-87.38 -8.9)" xlink:href="#linear-gradient"/><linearGradient id="linear-gradient-3" x1="339.74" y1="459.07" x2="339.74" y2="574.44" gradientUnits="userSpaceOnUse"><stop offset="0" stop-color="#fff" stop-opacity="0"/><stop offset="0.19" stop-color="#fff" stop-opacity="0.25"/><stop offset="0.41" stop-color="#fff" stop-opacity="0.52"/><stop offset="0.61" stop-color="#fff" stop-opacity="0.72"/><stop offset="0.78" stop-color="#fff" stop-opacity="0.87"/><stop offset="0.91" stop-color="#fff" stop-opacity="0.97"/><stop offset="1" stop-color="#fff"/></linearGradient></defs><polygon class="cls-1" points="203.23 185.36 106.16 17.13 0 17.13 150.2 277.17 203.23 185.36"/><polygon class="cls-2" points="476.25 185.36 573.32 17.13 679.48 17.13 529.27 277.17 476.25 185.36"/><polygon class="cls-3" points="392.66 91.78 339.73 0 286.81 91.78 29.52 537.22 135.68 537.22 188.6 445.44 188.62 445.44 241.57 353.66 241.53 353.66 317.1 222.77 317.13 222.72 317.13 222.72 339.73 183.56 369.66 235.4 369.66 235.4 369.86 235.74 437.94 353.66 437.9 353.66 490.85 445.44 490.86 445.44 513.11 484.01 513.5 484.7 513.5 484.7 543.79 537.22 649.95 537.22 392.66 91.78"/><polygon class="cls-4" points="276.91 469.06 402.56 469.06 392.66 486.19 339.73 577.97 286.81 486.19 276.91 469.06"/></svg>